<svg width="49" height="50" viewBox="0 0 49 50" fill="none" xmlns="http://www.w3.org/2000/svg">
<path d="M14.8093 11.7061H34.3092M14.8093 18.648H34.3092M38.8363 44.4209L36.9426 42.0019C36.4064 41.3199 35.3273 41.3071 34.7775 41.9826L32.8703 44.3308C31.6553 45.8234 29.2119 45.6176 28.3024 43.9384L26.9925 41.5258C25.9744 39.6536 23.1509 39.6665 22.1531 41.5451L20.9246 43.8676C20.0219 45.5661 17.5582 45.7848 16.3432 44.2794L14.4835 41.9762C13.9405 41.3006 12.8681 41.3006 12.3252 41.9762L10.2618 44.5303C9.47449 45.5082 7.82518 44.9806 7.82518 43.7454V5.02808H41.2797V43.6553C41.2797 44.897 39.61 45.4181 38.8295 44.4209H38.8363Z" stroke="#91A63B" stroke-width="3.86015" stroke-linecap="round" stroke-linejoin="round"/>
</svg>
