<svg width="49" height="50" viewBox="0 0 49 50" fill="none" xmlns="http://www.w3.org/2000/svg">
<path d="M34.2401 24.6618V22.7317C33.1742 22.7317 32.3101 23.5958 32.3101 24.6618H34.2401ZM29.8379 46.2293L31.1192 44.7858L31.118 44.7848L29.8379 46.2293ZM26.2897 43.0848L25.0086 44.5284L25.0096 44.5293L26.2897 43.0848ZM22.7746 43.0848L21.4982 41.637L21.4945 41.6404L22.7746 43.0848ZM19.2263 46.2293L17.9462 44.7848L17.9451 44.7858L19.2263 46.2293ZM14.8241 24.6618L16.2718 23.3852C15.7409 22.7832 14.8927 22.5725 14.1418 22.8563C13.3909 23.1401 12.8941 23.859 12.8941 24.6618H14.8241ZM34.2468 24.6618L35.6944 25.9383C36.1962 25.3692 36.318 24.559 36.0059 23.8676C35.6937 23.1761 35.0054 22.7317 34.2468 22.7317V24.6618ZM35.5472 16.1023C35.5472 22.1876 30.6141 27.1206 24.5288 27.1206V30.9808C32.746 30.9808 39.4073 24.3194 39.4073 16.1023H35.5472ZM24.5288 27.1206C18.4436 27.1206 13.5105 22.1876 13.5105 16.1023H9.65034C9.65034 24.3194 16.3117 30.9808 24.5288 30.9808V27.1206ZM13.5105 16.1023C13.5105 10.017 18.4436 5.08388 24.5288 5.08388V1.22374C16.3117 1.22374 9.65034 7.88509 9.65034 16.1023H13.5105ZM24.5288 5.08388C30.6141 5.08388 35.5472 10.017 35.5472 16.1023H39.4073C39.4073 7.88509 32.746 1.22374 24.5288 1.22374V5.08388ZM32.3101 24.6618V44.2499H36.1702V24.6618H32.3101ZM32.3101 44.2499C32.3101 44.8698 31.5816 45.1962 31.1192 44.7858L28.5567 47.6727C31.5102 50.2942 36.1702 48.1978 36.1702 44.2499H32.3101ZM31.118 44.7848L27.5698 41.6404L25.0096 44.5293L28.5579 47.6738L31.118 44.7848ZM27.5708 41.6412C25.8379 40.1034 23.2314 40.1091 21.4982 41.637L24.0509 44.5326C24.3301 44.2865 24.7423 44.2921 25.0086 44.5284L27.5708 41.6412ZM21.4945 41.6404L17.9462 44.7848L20.5064 47.6738L24.0547 44.5293L21.4945 41.6404ZM17.9451 44.7858C17.4863 45.193 16.7542 44.868 16.7542 44.2499H12.8941C12.8941 48.1863 17.5505 50.2974 20.5076 47.6727L17.9451 44.7858ZM16.7542 44.2499V24.6618H12.8941V44.2499H16.7542ZM13.3765 25.9383C16.0982 29.0249 20.0937 30.9742 24.5355 30.9742V27.114C21.2452 27.114 18.2899 25.674 16.2718 23.3852L13.3765 25.9383ZM24.5355 30.9742C28.9772 30.9742 32.9728 29.0249 35.6944 25.9383L32.7991 23.3852C30.781 25.674 27.8257 27.114 24.5355 27.114V30.9742ZM34.2468 22.7317H34.2401V26.5918H34.2468V22.7317Z" fill="#91A63B"/>
</svg>
