<svg width="50" height="50" viewBox="0 0 50 50" fill="none" xmlns="http://www.w3.org/2000/svg">
<path d="M38.7842 28.4899C40.7237 25.6037 41.763 22.0556 41.5048 18.2558C40.9488 10.1732 34.349 3.62626 26.2663 3.12978C16.7803 2.54725 8.91608 10.054 8.91608 19.4077C8.91608 22.6911 9.88255 25.7494 11.5573 28.3112C13.5565 31.3761 14.887 34.8118 15.3438 38.3996H35.0837C35.4743 34.8581 36.785 31.4754 38.7908 28.4899H38.7842Z" stroke="#91A63B" stroke-width="3.86015" stroke-miterlimit="10"/>
<path d="M15.3372 38.3996C15.4497 39.2801 15.5225 40.1671 15.5225 41.0608V42.2126C15.5225 44.7744 17.5945 46.8464 20.1563 46.8464H30.3109C32.8728 46.8464 34.9447 44.7744 34.9447 42.2126V40.5709C34.9447 39.8427 34.9977 39.1146 35.0771 38.3996H15.3372Z" stroke="#91A63B" stroke-width="3.86015" stroke-miterlimit="10"/>
</svg>
